# xmcd CD database file
#
# Track frame offsets:
#	150
#	16340
#	29822
#	45937
#	59477
#	81297
#	95065
#	111315
#	124977
#	139925
#	152210
#	173720
#	185635
#	200062
#	213327
#	227047
#	237902
#	249585
#	264082
#	279625
#	293135
#	307255
#	319785
#	332067
#
# Disc length: 4578 seconds
#
# Revision: 6
# Processed by: cddbd v1.5.1PL2 Copyright (c) Steve Scherf et al.
# Submitted via: CDex 1.51
#
DISCID=7011e018
DTITLE=Trumpet - Triumphs of Jazz Vol. 15,
DYEAR=2000
DGENRE=Jazz
TTITLE0=King Olivier and His orchestra - West end blues - 1929
TTITLE1=Tommy Ladnier and His Orchestra - Weary blues - 1938
TTITLE2=Bunk Jonhnson  and His Orchestra - Franklin street blues - 1942
TTITLE3=Bix beiderbeke - Singin' the blues - 1927
TTITLE4=Bunny Berigan  and His Orchestra - I can't get started - 1937
TTITLE5=Red Nichols - Davenport Blues - 1927
TTITLE6=Bubber Miley - Saint James infirmary - 1930
TTITLE7=Rex Stewart - Boy meets horn - 1938
TTITLE8=Cootie Williams - Concerto for Cootie - 1940
TTITLE9=Bill Coleman - Bill Coleman blues - 1937
TTITLE10=Sidney de Paris - Saint Louis Blues - 1944
TTITLE11=Muggsy Spanier and His Ragtime Band - Black and blue - 1939
TTITLE12=Frank Newton  and His Orchestra - The blues my baby gave to me - 1939
TTITLE13=Bobby Hackett  and His Orchestra - Embraceable you - 1939
TTITLE14=Red Allen - Ride, Red, ride - 1935
TTITLE15=Hot Lips Page  and His Orchestra - Skull duggery - 1938
TTITLE16=Jonah Jones - Jonah joins the Cab - 1941
TTITLE17=Harry Edison  and His Orchestra - Ain't cha gonna do it - 1945
TTITLE18=Buck Clayton and His Big Four - On the sunny side of the street - 1946
TTITLE19=Roy Elridge  and His Orchestra - After you've gone - 1937
TTITLE20=Cat Anderson - A gathering in a clearing - 1946
TTITLE21=Howard McGhee - Down home - 1948
TTITLE22=Fats Navarro and His Thin Men - Nostalgia - 1947
TTITLE23=Taft Jordan, Harold Baker, Ray Nance, Francis Williams, Cat Anderson, Duke Ellington and His Orchestra - Trumpet no end - 1946
EXTD=YEAR: 2000
EXTT0=
EXTT1=
EXTT2=
EXTT3=
EXTT4=
EXTT5=
EXTT6=
EXTT7=
EXTT8=
EXTT9=
EXTT10=
EXTT11=
EXTT12=
EXTT13=
EXTT14=
EXTT15=
EXTT16=
EXTT17=
EXTT18=
EXTT19=
EXTT20=
EXTT21=
EXTT22=
EXTT23=
PLAYORDER=
